<svg width="15" height="15" viewBox="0 0 15 15" fill="none" xmlns="http://www.w3.org/2000/svg">
<path id="Vector" d="M6.18174 0C6.46499 0 6.74825 0 7.0315 0C7.07369 0.00880529 7.11552 0.0223801 7.15845 0.0256821C7.87942 0.0821827 8.57801 0.243246 9.23148 0.549964C11.5999 1.66273 12.9391 3.51845 13.1864 6.13142C13.2997 7.3293 13.0609 8.47436 12.512 9.54347C12.2816 9.99217 11.9895 10.409 11.7092 10.8665C11.7242 10.8786 11.7738 10.9112 11.8152 10.9523C12.7721 11.9073 13.7301 12.8609 14.6808 13.8217C14.8074 13.9498 14.8947 14.1167 15 14.2653V14.5291C14.9908 14.5394 14.978 14.5482 14.9732 14.5599C14.7747 15.0446 14.2893 15.1469 13.9176 14.7767C13.0565 13.919 12.1979 13.0586 11.339 12.1983C11.1702 12.0291 11.0044 11.8571 10.8415 11.6909C10.8187 11.6993 10.8084 11.7004 10.8011 11.7059C10.7655 11.7319 10.731 11.7587 10.6962 11.7851C9.12874 12.9871 7.37052 13.4394 5.42334 13.0964C2.41617 12.5677 0.145374 9.97456 0.00741637 6.92243C-0.0520227 5.602 0.244806 4.36192 0.934592 3.23154C1.9656 1.54276 3.45745 0.4986 5.40316 0.115203C5.66036 0.0645721 5.92234 0.0377894 6.18174 0ZM11.9877 6.59957C11.9778 3.62558 9.54885 1.20302 6.59671 1.22283C3.61852 1.24265 1.22775 3.63622 1.22335 6.6025C1.21858 9.56475 3.64274 11.9888 6.60735 11.9866C9.5749 11.9844 11.9976 9.55851 11.9881 6.5992L11.9877 6.59957Z" fill="#B0B5FF"/>
</svg>
